<?xml version="1.0" encoding="UTF-8" standalone="no"?>
<!-- Created with Inkscape (http://www.inkscape.org/) -->

<svg
   width="210mm"
   height="297mm"
   viewBox="0 0 210 297"
   version="1.1"
   id="svg5"
   xml:space="preserve"
   sodipodi:docname="faceplate-refined.svg"
   inkscape:version="1.2.1 (9c6d41e410, 2022-07-14)"
   inkscape:export-filename="faceplate-refined-dark.png"
   inkscape:export-xdpi="96"
   inkscape:export-ydpi="96"
   xmlns:inkscape="http://www.inkscape.org/namespaces/inkscape"
   xmlns:sodipodi="http://sodipodi.sourceforge.net/DTD/sodipodi-0.dtd"
   xmlns="http://www.w3.org/2000/svg"
   xmlns:svg="http://www.w3.org/2000/svg"><sodipodi:namedview
     id="namedview7"
     pagecolor="#ffffff"
     bordercolor="#eeeeee"
     borderopacity="1"
     inkscape:showpageshadow="0"
     inkscape:pageopacity="0"
     inkscape:pagecheckerboard="false"
     inkscape:deskcolor="#505050"
     inkscape:document-units="mm"
     showgrid="false"
     showguides="true"
     inkscape:zoom="1.0226186"
     inkscape:cx="324.16778"
     inkscape:cy="357.9047"
     inkscape:window-width="1920"
     inkscape:window-height="1009"
     inkscape:window-x="-8"
     inkscape:window-y="-8"
     inkscape:window-maximized="1"
     inkscape:current-layer="g2408"><sodipodi:guide
       position="20.051667,235.55135"
       orientation="0,-1"
       id="guide2562"
       inkscape:locked="false" /><sodipodi:guide
       position="0,297"
       orientation="0,1"
       id="guide2564"
       inkscape:locked="false"
       inkscape:label=""
       inkscape:color="rgb(0,134,229)" /><sodipodi:guide
       position="24.149476,243.57844"
       orientation="0,-1"
       id="guide2566"
       inkscape:locked="false" /><sodipodi:guide
       position="9.3304795,241.93188"
       orientation="1,0"
       id="guide2568"
       inkscape:locked="false" /><sodipodi:guide
       position="127.51655,250.89646"
       orientation="1,0"
       id="guide2570"
       inkscape:locked="false" /><sodipodi:guide
       position="0,297"
       orientation="0,793.70079"
       id="guide2592"
       inkscape:locked="false" /><sodipodi:guide
       position="210,297"
       orientation="1122.5197,0"
       id="guide2594"
       inkscape:locked="false" /><sodipodi:guide
       position="210,0"
       orientation="0,-793.70079"
       id="guide2596"
       inkscape:locked="false" /><sodipodi:guide
       position="0,0"
       orientation="-1122.5197,0"
       id="guide2598"
       inkscape:locked="false" /><sodipodi:guide
       position="0,297"
       orientation="0,793.70079"
       id="guide2600"
       inkscape:locked="false" /><sodipodi:guide
       position="210,297"
       orientation="1122.5197,0"
       id="guide2602"
       inkscape:locked="false" /><sodipodi:guide
       position="210,0"
       orientation="0,-793.70079"
       id="guide2604"
       inkscape:locked="false" /><sodipodi:guide
       position="0,0"
       orientation="-1122.5197,0"
       id="guide2606"
       inkscape:locked="false" /><sodipodi:guide
       position="-134.28149,106.83257"
       orientation="0,1"
       id="guide2631"
       inkscape:locked="false"
       inkscape:label=""
       inkscape:color="rgb(0,134,229)" /></sodipodi:namedview><defs
     id="defs2" /><g
     inkscape:label="Layer 1"
     inkscape:groupmode="layer"
     id="layer1"><path
       id="path1821"
       style="fill:#686767;stroke:none;stroke-width:0.0846667"
       d="m 55.650268,53.385395 c -7.262705,1.983797 -15.773519,2.618846 -23.309467,5.245323 -7.545284,3.854886 -11.036077,12.418937 -11.940146,20.427332 -3.229626,13.011813 -10.145741,25.10082 -10.7211453,38.73952 -0.917318,10.74075 2.0244423,21.63496 8.1098073,30.51783 3.596504,5.8787 6.234878,12.27079 8.408079,18.77303 0.664288,2.69747 4.323694,9.47481 5.031313,8.37135 -5.656164,-8.71571 -7.02137,-19.51817 -13.226657,-27.95498 -4.179609,-6.63189 -7.36998,-14.08276 -7.527435,-22.02619 -1.3426613,-14.05486 4.644228,-27.28394 9.667496,-40.032165 2.361941,-8.428298 2.80088,-18.578319 10.488926,-24.256142 5.859798,-4.481729 13.894045,-3.559951 20.27369,-5.812024 6.131024,-2.859107 11.204819,0.650939 11.180002,6.683753 4.237788,0.410444 11.063987,-0.533225 1.945998,-0.508341 -4.148767,-1.615637 -0.555183,-6.267125 -8.380461,-8.168296 z m -5.138189,1.38842 c -2.428542,0.7144 2.098196,-0.714217 0,0 z m -7.175881,79.140245 c 0.305818,-0.58434 0.650828,-1.24355 0,0 z M 29.834175,174.4026 c 6.260757,9.91826 18.108299,17.54868 30.18684,15.43327 3.34452,1.27604 15.307884,-0.15474 3.234996,-0.48336 -7.275547,0.378 -15.075253,0.48925 -21.392375,-3.72506 -4.76562,-2.86746 -7.863593,-7.65607 -12.029461,-11.22485 z m 2.476636,2.73606 c -1.283801,0.002 0.83586,-1.16381 0,0 z m 4.664062,5.01953 c -0.746159,0.7429 -0.03473,-1.18212 0,0 z m 1.570313,0.75782 c -0.406113,1.23503 -0.903181,-1.31874 0,0 z m 4.904296,3.43164 c -0.215359,1.23184 -0.790235,-0.88108 0,0 z m 5.093908,2.80446 c -1.343661,0.63092 0.41687,-1.08961 0,0 z"
       sodipodi:nodetypes="cccccccccccccccccccccccccccccccccc" /><path
       id="path1843"
       style="fill:#686767;stroke:none;stroke-width:0.0846667"
       d="m 55.650268,53.385395 c -7.262705,1.983797 -15.773519,2.618846 -23.309467,5.245323 -7.545284,3.854886 -11.036077,12.418937 -11.940146,20.427332 -3.229626,13.011813 -10.145741,25.10082 -10.7211453,38.73952 -0.917318,10.74075 2.0244423,21.63496 8.1098073,30.51783 3.596504,5.8787 6.234878,12.27079 8.408079,18.77303 0.664288,2.69747 4.323694,9.47481 5.031313,8.37135 -5.656164,-8.71571 -7.02137,-19.51817 -13.226657,-27.95498 -4.179609,-6.63189 -7.36998,-14.08276 -7.527435,-22.02619 -1.3426613,-14.05486 4.644228,-27.28394 9.667496,-40.032165 2.361941,-8.428298 2.80088,-18.578319 10.488926,-24.256142 5.859798,-4.481729 13.894045,-3.559951 20.27369,-5.812024 6.131024,-2.859107 11.204819,0.650939 11.180002,6.683753 4.237788,0.410444 11.063987,-0.533225 1.945998,-0.508341 -4.148767,-1.615637 -0.555183,-6.267125 -8.380461,-8.168296 z m -5.138189,1.38842 c -2.428542,0.7144 2.098196,-0.714217 0,0 z m -7.175881,79.140245 c 0.305818,-0.58434 0.650828,-1.24355 0,0 z M 29.834175,174.4026 c 6.260757,9.91826 18.108299,17.54868 30.18684,15.43327 3.34452,1.27604 15.307884,-0.15474 3.234996,-0.48336 -7.275547,0.378 -15.075253,0.48925 -21.392375,-3.72506 -4.76562,-2.86746 -7.863593,-7.65607 -12.029461,-11.22485 z m 2.476636,2.73606 c -1.283801,0.002 0.83586,-1.16381 0,0 z m 4.664062,5.01953 c -0.746159,0.7429 -0.03473,-1.18212 0,0 z m 1.570313,0.75782 c -0.406113,1.23503 -0.903181,-1.31874 0,0 z m 4.904296,3.43164 c -0.215359,1.23184 -0.790235,-0.88108 0,0 z m 5.093908,2.80446 c -1.343661,0.63092 0.41687,-1.08961 0,0 z"
       sodipodi:nodetypes="cccccccccccccccccccccccccccccccccc" /><g
       id="g2408"
       inkscape:export-filename=".\g2408.tiff"
       inkscape:export-xdpi="120"
       inkscape:export-ydpi="120"><g
         id="g2589"><path
           id="path1845"
           style="fill:#171717;fill-opacity:1;stroke:none;stroke-width:0.0846667"
           d="M 55.652417 52.838118 L 55.555782 52.862923 L 55.517542 52.873258 C 47.784029 54.942662 39.688143 55.498361 32.087964 58.165959 C 27.112502 60.678851 23.671921 65.481996 21.812622 70.634965 C 20.76797 73.409309 20.215871 76.336248 19.803959 79.259245 C 16.909577 90.64963 11.304961 101.27014 9.6092326 112.97502 C 9.1707105 116.24642 8.9527476 119.55396 8.9999674 122.85555 C 9.2251441 132.0768 12.234077 141.18282 17.452165 148.7811 C 21.004731 154.64567 23.644987 161.04116 25.779822 167.54843 C 26.651765 170.18176 27.930123 172.69435 29.531531 174.95883 C 33.484567 180.93918 39.091401 185.93128 45.766199 188.6536 C 46.338209 188.89093 46.927059 189.10233 47.507694 189.30472 C 47.490035 189.88315 48.285741 189.92654 48.679716 189.66801 C 52.331435 190.72749 56.221802 191.02199 59.976701 190.37701 C 62.273989 191.03214 64.715816 190.93037 67.075492 190.76252 C 67.489918 190.68319 68.016055 190.69395 68.440784 190.54548 C 70.504557 190.98112 72.654787 190.93078 74.749443 190.77078 C 75.521384 190.76178 76.275135 190.46416 77.018038 190.40698 C 80.71032 191.01577 84.528354 190.70722 88.115035 189.66801 C 88.511193 189.92824 89.317076 189.88007 89.291191 189.30059 C 96.676837 186.79615 102.93402 181.50545 107.20121 175.03944 C 108.82064 172.80317 110.07421 170.29543 110.97669 167.68899 C 113.16491 160.97336 115.85851 154.44941 119.55859 148.44314 C 125.70885 139.41527 128.62241 128.23963 127.62167 117.35821 C 127.14904 107.87874 123.58294 98.963798 120.42727 90.128866 C 119.10831 86.357435 117.75214 82.576044 116.88279 78.673234 C 116.11658 72.508643 113.95336 66.255019 109.5406 61.736283 C 108.00551 60.213587 106.255 58.817574 104.24118 58.003178 C 96.734701 55.463429 88.771033 54.892748 81.144401 52.838118 L 81.047766 52.862923 L 81.009526 52.873258 C 78.712773 53.407436 76.250037 54.54518 75.301347 56.861646 C 74.672051 58.159397 74.627158 59.751713 73.350045 60.651078 C 72.520793 61.316833 71.401658 60.916233 70.426709 61.04847 C 69.751615 61.106888 69.020837 61.03115 68.360685 61.202983 C 67.360972 60.972429 66.2818 61.096385 65.260616 61.02935 C 64.521505 61.08918 63.755152 61.036741 63.209062 60.46866 C 61.918869 59.268689 62.013416 57.291139 60.97509 55.919584 C 59.784081 54.131373 57.654597 53.328223 55.652417 52.838118 z M 55.172343 54.906726 C 56.495353 54.91778 57.805927 55.263037 58.879093 56.076164 C 60.900009 57.539064 61.662707 60.154006 61.564201 62.554838 C 63.825879 62.729073 66.131858 62.802055 68.373604 62.412728 C 70.633097 62.794698 72.950646 62.736397 75.228483 62.554838 C 75.12331 60.047587 75.984898 57.289186 78.195744 55.884444 C 80.480968 54.38249 83.466969 54.780488 85.817501 55.912349 C 91.654466 57.907427 98.160085 57.39858 103.72855 60.268156 C 107.62726 62.293257 110.46254 65.951194 112.02727 70.003479 C 114.07752 75.100982 114.69506 80.582089 116.23632 85.828353 C 120.19433 95.895433 124.65532 105.96751 125.74995 116.83008 C 126.08596 119.89811 126.00653 122.98963 125.77372 126.06052 C 125.46748 133.73378 122.31108 140.99684 118.22741 147.38945 C 112.65907 155.05587 110.99881 164.65416 106.49272 172.87369 C 105.91281 173.8732 105.3343 174.97679 104.65304 175.83216 C 104.39188 176.19136 103.69113 176.12321 103.75284 176.7241 C 102.10418 178.49125 100.46756 180.33748 98.705086 182.00388 C 98.196293 181.95098 97.924337 182.49847 97.646236 182.83587 C 97.525904 183.27412 96.830445 183.56401 96.483 183.92469 C 95.649203 184.53941 94.75522 185.1783 93.85732 185.63673 C 93.291542 185.40758 92.905586 186.11577 92.60675 186.36589 C 86.735146 189.31462 79.967107 189.13814 73.521611 188.82207 C 71.831839 188.93075 70.097083 188.85107 68.441817 189.23548 C 68.12922 189.13738 67.763796 189.10365 67.495105 189.06598 C 65.066074 188.80066 62.621028 188.79606 60.18444 188.95281 C 54.66069 189.11168 48.975494 188.84308 44.00765 186.27338 C 43.896972 185.90977 43.333185 185.42578 42.896606 185.65223 C 41.565991 184.84654 40.27033 183.97501 39.107174 182.93767 C 39.064174 182.56732 38.62553 182.07703 38.216272 182.00078 C 37.683903 181.81715 37.330811 181.17878 36.876302 180.8148 C 35.574958 179.48065 34.329529 178.09282 33.040877 176.74632 C 33.112387 176.09155 32.304824 176.19901 32.051274 175.74173 C 30.738298 173.81554 29.56728 171.59614 28.584302 169.41085 C 25.288406 162.07536 23.366855 154.02548 18.595247 147.42614 C 14.481739 141.00968 11.311879 133.7043 11.021033 125.99334 C 10.698442 122.18464 10.747671 118.33869 11.32334 114.55476 C 12.783695 104.41135 16.991873 94.977411 20.679875 85.485221 C 22.386272 79.35352 23.00368 72.806831 26.127087 67.154041 C 28.083444 63.602546 31.38486 60.630762 35.303788 59.296639 C 40.504418 57.422734 46.212939 57.684893 51.390145 55.743368 C 52.51369 55.219015 53.849333 54.895672 55.172343 54.906726 z M 32.125171 176.69981 C 32.176611 176.69652 32.261405 176.73768 32.392338 176.85329 C 32.313607 177.56691 31.902266 176.71407 32.125171 176.69981 z M 104.58535 176.71273 C 104.6416 176.71615 104.71484 176.7392 104.80859 176.78921 C 104.63682 177.61373 104.19157 176.68875 104.58535 176.71273 z M 100.16029 181.81474 L 100.19543 181.82611 C 100.5592 182.65703 98.951481 182.02644 100.1143 181.82508 L 100.16029 181.81474 z M 36.736259 181.83593 C 36.812439 181.85283 36.888489 181.86977 36.964669 181.88657 C 37.637138 182.56096 35.887298 182.11177 36.736259 181.83593 z M 98.480811 182.74285 C 98.531713 182.75094 98.608233 182.76887 98.718522 182.80073 C 99.042859 183.12245 98.124491 182.68625 98.480811 182.74285 z M 38.230225 182.77127 C 38.282593 182.7654 38.343919 182.76452 38.414193 182.77127 C 37.933909 183.1008 37.863649 182.81237 38.230225 182.77127 z M 93.468197 186.21654 C 93.53604 186.21354 93.647907 186.24722 93.81908 186.3416 L 93.87489 186.37674 C 93.711191 186.93174 93.17421 186.22952 93.468197 186.21654 z M 43.290381 186.2615 C 43.343112 186.2614 43.402288 186.26436 43.468665 186.27132 C 43.181181 186.98639 42.499408 186.26297 43.290381 186.2615 z M 88.444214 188.76677 C 88.510293 188.74787 88.595769 188.78103 88.701046 188.90423 C 88.240323 189.9122 88.15787 188.84868 88.444214 188.76677 z M 48.316431 188.77762 C 48.430374 188.76695 48.549653 188.89037 48.517452 189.28922 C 47.95147 189.18515 48.126525 188.79541 48.316431 188.77762 z " /></g><path
         id="path2494"
         style="fill:#171717;fill-opacity:1;stroke:none;stroke-width:0.0846667"
         d="m 73.816406,60.880859 c -0.648592,0.445609 0.640152,-0.02211 0.189392,-0.141357 -0.06313,0.04712 -0.126261,0.09424 -0.189392,0.141357 z M 99.074219,176.48633 c -0.338678,0.54676 0.461034,0.56172 0,0 z" /></g></g></svg>
